PathFileType	4	(X/Y/Z)	c:/Users/goper/Files/vsCode/490R/osim_files/C12/C12_Slow_03.trc
DataRate	CameraRate	NumFrames	NumMarkers	Units                	OrigDataRate	OrigDataStartFrame	OrigNumFrames
120.00	120.00	7	36	mm	120.0	925	1479
                Frame#	Time	LPSIS			LASIS			LTH1			LTH2			LTH3			LTH4			LLFE			LMFE			LSH1			LSH2			LSH3			LSH4			LLMAL			LMMAL			LCAL			LMTP5			LTOE			LMTP1			RPSIS			RASIS			RTH1			RTH2			RTH3			RTH4			RLFE			RMFE			RSH1			RSH2			RSH3			RSH4			RLMAL			RMMAL			RCAL			RMTP1			RTOE			RMTP5		
		X1	Y1	Z1	X2	Y2	Z2	X3	Y3	Z3	X4	Y4	Z4	X5	Y5	Z5	X6	Y6	Z6	X7	Y7	Z7	X8	Y8	Z8	X9	Y9	Z9	X10	Y10	Z10	X11	Y11	Z11	X12	Y12	Z12	X13	Y13	Z13	X14	Y14	Z14	X15	Y15	Z15	X16	Y16	Z16	X17	Y17	Z17	X18	Y18	Z18	X19	Y19	Z19	X20	Y20	Z20	X21	Y21	Z21	X22	Y22	Z22	X23	Y23	Z23	X24	Y24	Z24	X25	Y25	Z25	X26	Y26	Z26	X27	Y27	Z27	X28	Y28	Z28	X29	Y29	Z29	X30	Y30	Z30	X31	Y31	Z31	X32	Y32	Z32	X33	Y33	Z33	X34	Y34	Z34	X35	Y35	Z35	X36	Y36	Z36

925	7.70000	-1841.97998	1064.34070	370.98254	-2012.03296	1011.27576	453.22302	-1852.86707	751.73596	480.32114	-1846.69995	709.07129	478.09738	-1912.06433	741.51105	486.91385	-1900.41296	697.66449	481.57477	-1832.59155	529.18304	436.76282	-1837.47437	524.77466	311.63132	-1748.25415	453.38144	452.32446	-1737.05896	407.45325	458.54190	-1804.99841	432.49789	445.13531	-1784.28955	389.23126	449.04044	-1660.83667	124.72459	406.86292	-1669.73853	124.93508	329.02005	-1591.24170	106.04657	370.68542	-1776.46252	40.41390	432.33813	-1832.95886	63.11585	362.68936	-1796.50549	39.21770	319.54932	-1837.04102	1053.43359	256.39285	-2023.65857	1019.07916	194.68744	-2002.68530	731.80988	125.15177	-2022.59241	690.75244	131.67587	-2062.12207	752.84479	133.19560	-2073.81226	707.01172	136.53813	-2103.94043	534.14417	170.92198	-2099.11206	530.51575	309.50092	-2090.02856	424.29547	150.40657	-2112.14795	386.72809	141.86308	-2147.99243	448.69638	153.14603	-2158.92407	406.73727	143.84734	-2276.04150	134.01422	176.11256	-2285.47437	158.08644	256.10641	-2236.38257	67.56542	221.99516	-2428.12500	165.18004	257.47122	-2450.71313	203.56255	221.69939	-2439.21558	152.60735	152.66298
926	7.70833	-1852.53662	1062.82214	370.22961	-2021.93945	1009.47510	452.43958	-1860.53247	751.45001	479.67752	-1853.70251	708.90814	477.60132	-1919.45447	740.60675	486.40524	-1907.52246	696.72327	481.13306	-1837.92334	529.02173	436.81766	-1842.90417	524.45667	311.97403	-1752.76001	454.11810	452.30066	-1741.10718	408.22598	458.56903	-1809.16602	432.46332	445.27612	-1788.01550	389.56827	449.25699	-1661.89331	126.17297	407.10330	-1670.92639	126.35078	329.24377	-1592.30212	108.14032	370.88397	-1776.62012	40.23889	432.48032	-1833.28735	62.95731	362.69467	-1796.69983	39.20262	319.72385	-1847.59265	1051.67639	255.64099	-2033.97729	1016.90021	194.08577	-2012.99963	729.81006	125.29617	-2032.84668	688.86414	131.68521	-2072.38989	750.82166	132.87325	-2084.02539	705.00500	136.20453	-2114.54492	532.45984	171.47879	-2110.66919	529.66711	310.20819	-2101.46313	422.17212	151.75142	-2123.86523	384.71127	143.33241	-2159.35059	447.00507	154.15167	-2170.44727	404.99487	145.13881	-2289.94165	133.62781	178.41258	-2300.12207	157.87848	257.91403	-2251.20410	66.90083	224.92775	-2442.10962	166.78320	258.83270	-2464.16138	205.37085	222.76048	-2452.74902	153.96097	154.01813
927	7.71667	-1863.10632	1061.29187	369.44067	-2032.40845	1007.82941	451.73117	-1867.69031	751.37354	479.15219	-1860.41443	708.97839	477.28665	-1927.00513	739.93390	485.91302	-1913.81824	697.33588	480.84775	-1843.51062	528.88116	436.83902	-1849.07544	523.95636	311.99799	-1757.40771	455.04324	452.17035	-1745.31128	409.23105	458.53613	-1813.79895	432.69653	445.37155	-1792.07581	389.94986	449.45200	-1663.18042	127.81674	407.41644	-1672.30566	127.83196	329.39709	-1592.28333	110.84423	370.72742	-1776.88721	40.10804	432.58688	-1833.52930	62.83728	362.59756	-1796.97107	39.17282	319.90741	-1858.28027	1049.98633	254.88075	-2044.42773	1014.73303	193.40244	-2024.82617	727.66248	125.95831	-2043.90076	687.07599	131.70964	-2083.22388	749.12720	132.37531	-2095.04712	703.41663	135.97427	-2125.83154	530.84961	172.03979	-2123.80835	529.01404	311.46246	-2113.37817	420.38702	153.12984	-2135.77051	382.99701	144.82187	-2171.11279	445.35815	155.21793	-2182.34766	403.30545	146.44978	-2302.21216	132.43073	180.63255	-2311.92017	157.05818	260.44717	-2263.88672	65.48456	227.35605	-2454.73071	166.47598	259.96414	-2476.13159	205.40604	224.07628	-2464.31641	153.64790	155.43140
928	7.72500	-1873.76184	1059.77869	368.61218	-2043.37939	1006.32483	451.19058	-1876.12354	751.30927	478.62238	-1868.05786	708.81952	476.79007	-1934.87817	739.22894	485.57214	-1921.21387	696.78680	480.59381	-1849.64526	528.83167	436.85049	-1855.59021	523.44745	311.94116	-1762.83411	455.80896	452.04752	-1749.94006	410.17587	458.42172	-1818.73486	432.81812	445.45837	-1796.45740	390.38147	449.56088	-1664.51025	129.57469	407.75256	-1673.65857	129.47379	329.65485	-1594.64734	113.04726	371.21536	-1777.14551	40.03268	432.72067	-1833.67627	62.82061	362.31042	-1797.25220	39.13894	320.05365	-1868.94299	1048.40881	254.12210	-2054.99683	1012.72980	192.59230	-2036.37268	726.00464	125.72163	-2055.82300	685.54736	131.58377	-2094.63794	747.77252	131.95787	-2106.74316	702.14215	135.65598	-2137.96362	529.58051	172.75159	-2136.54004	528.43762	311.97382	-2125.37109	419.01627	154.61046	-2147.74512	381.49277	146.34695	-2183.15869	443.72177	156.44035	-2193.65088	401.90576	147.65292	-2312.83569	130.47566	182.73700	-2322.79004	155.15439	262.57822	-2274.58813	63.82274	229.53101	-2465.23438	164.76915	261.76569	-2486.71875	203.55003	225.49889	-2475.06055	151.89854	156.80745
929	7.73333	-1884.34521	1058.32605	367.80585	-2053.65234	1004.72485	450.18091	-1884.42810	751.09393	478.06381	-1876.00452	708.57391	476.34122	-1943.01099	738.53314	485.11340	-1929.03845	696.12976	480.23175	-1856.07141	528.56030	436.90582	-1862.66589	522.89435	311.97562	-1768.34448	456.61713	451.79126	-1755.02136	411.01572	458.45404	-1824.21252	432.62448	445.61890	-1801.18799	390.77304	449.64557	-1666.02771	131.46075	408.11685	-1675.31201	131.23656	329.90683	-1596.03357	115.74879	371.42123	-1777.41040	39.95776	432.89572	-1833.75317	62.93694	361.91449	-1797.55762	39.14664	320.21167	-1879.58069	1046.76050	253.39922	-2065.64624	1010.90619	191.75618	-2048.40967	724.54980	125.36832	-2068.29712	684.18420	131.53052	-2106.68848	746.60797	131.20982	-2119.23193	701.27277	135.60150	-2150.59644	528.50226	173.60535	-2149.82690	528.24304	312.55917	-2137.50269	417.94711	155.89426	-2159.60986	380.13852	147.79227	-2195.53076	442.15396	157.69850	-2205.93701	400.15811	148.99976	-2321.62402	127.86902	184.72975	-2332.08276	152.47513	264.56387	-2283.48828	61.31316	231.59796	-2474.77393	161.11955	263.49936	-2496.25610	199.83910	227.17238	-2483.70190	148.52847	158.51913
930	7.74167	-1894.89124	1056.93152	366.70322	-2064.35156	1003.26660	449.29944	-1890.49561	751.33716	479.05618	-1884.26611	708.25610	475.83261	-1951.44727	737.66840	484.76450	-1937.12122	695.39288	479.98700	-1862.86804	528.34521	436.86020	-1870.01123	522.21521	311.95822	-1774.38318	457.40738	451.59445	-1760.34851	412.01047	458.31741	-1829.81995	432.55777	445.65210	-1806.33667	391.09351	449.75189	-1667.54150	133.38354	408.39294	-1676.98657	133.13188	330.01993	-1597.59668	118.80207	371.59799	-1777.63428	39.92599	433.02789	-1833.79004	63.21362	361.55673	-1797.85510	39.16640	320.35339	-1890.44519	1045.07434	252.59531	-2076.60474	1009.19183	190.86806	-2060.95166	723.29962	125.03563	-2081.40503	683.12531	131.40901	-2119.11353	745.87085	130.94299	-2132.19824	700.74774	135.50137	-2163.70166	527.67371	174.58151	-2163.83423	528.31049	313.26025	-2149.68726	417.10098	157.01334	-2171.48193	378.91034	149.02875	-2207.90112	440.56519	159.13594	-2217.99487	398.52014	150.32759	-2329.46777	124.55442	186.83353	-2340.44922	148.94229	266.79526	-2290.48730	58.25258	233.64832	-2483.12329	155.82945	264.83664	-2504.62378	194.83665	228.94702	-2491.28638	144.00470	160.14948
931	7.75000	-1906.32007	1055.30835	366.02258	-2075.78564	1001.86047	448.64984	-1898.77209	750.94574	478.31195	-1892.88477	707.83154	475.28964	-1960.06567	736.76685	484.35889	-1945.51965	694.58557	479.51321	-1870.20618	527.90710	436.81192	-1877.41211	521.34033	311.58200	-1780.73035	458.23132	451.30502	-1765.99658	412.99121	458.17242	-1835.75220	432.61942	445.68069	-1811.62561	391.37567	449.82077	-1669.27722	135.66011	408.62933	-1678.91370	135.16479	330.21136	-1599.27612	122.04024	371.77136	-1777.88672	39.90880	433.14224	-1833.92651	63.37935	361.24277	-1798.13416	39.18564	320.48065	-1901.42200	1043.42200	251.64503	-2087.72778	1007.56964	189.87961	-2073.76025	722.17096	124.64445	-2094.92163	682.04993	131.28853	-2131.97681	745.33807	130.63776	-2145.44824	700.36316	135.46239	-2177.36304	527.08069	175.58730	-2177.37231	528.13409	313.70276	-2161.82812	416.21490	158.01985	-2183.07153	377.52524	150.23747	-2220.39282	438.79538	160.39790	-2229.99634	396.70096	151.72556	-2335.99170	120.67152	189.01694	-2347.13477	144.86385	268.90591	-2296.06787	54.78973	235.70976	-2489.93701	149.75740	266.51617	-2511.73096	188.66945	230.86847	-2497.51440	138.42705	161.78625
